<svg width="27" height="27" viewBox="0 0 27 27" fill="none" xmlns="http://www.w3.org/2000/svg">
<path d="M5.70862 13.0616L4.90832 13.5005L5.70902 13.9386C8.81548 15.6385 11.3683 18.1915 13.0612 21.2907L13.4996 22.0933L13.9386 21.291C15.6385 18.1845 18.1915 15.6317 21.2907 13.9388L22.0933 13.5004L21.291 13.0614C18.1845 11.3615 15.6317 8.80847 13.9388 5.70935L13.5009 4.9076L13.0616 5.70862C11.3617 8.80843 8.80843 11.3617 5.70862 13.0616ZM13.5 0.5C20.679 0.5 26.5 6.32102 26.5 13.5C26.5 20.679 20.679 26.5 13.5 26.5C6.32102 26.5 0.5 20.679 0.5 13.5C0.5 6.32102 6.32102 0.5 13.5 0.5Z" fill="#E6FF00" stroke="black"/>
</svg>
